<svg width="44" height="50" viewBox="0 0 44 50" fill="none" xmlns="http://www.w3.org/2000/svg">
<path d="M19.0875 0C17.8257 0 16.6202 0.510781 15.7269 1.42578L14.6783 2.5H2.47534C2.15194 2.49531 1.83085 2.55652 1.53073 2.68005C1.23062 2.80359 0.957465 2.98699 0.727148 3.2196C0.496831 3.45221 0.313943 3.72939 0.189113 4.03504C0.0642826 4.34068 0 4.66869 0 5C0 5.33131 0.0642826 5.65932 0.189113 5.96496C0.313943 6.27061 0.496831 6.54779 0.727148 6.7804C0.957465 7.01301 1.23062 7.19641 1.53073 7.31995C1.83085 7.44348 2.15194 7.50468 2.47534 7.5H41.5247C41.8481 7.50468 42.1692 7.44348 42.4693 7.31995C42.7694 7.19641 43.0425 7.01301 43.2729 6.7804C43.5032 6.54779 43.6861 6.27061 43.8109 5.96496C43.9357 5.65932 44 5.33131 44 5C44 4.66869 43.9357 4.34068 43.8109 4.03504C43.6861 3.72939 43.5032 3.45221 43.2729 3.2196C43.0425 2.98699 42.7694 2.80359 42.4693 2.68005C42.1692 2.55652 41.8481 2.49531 41.5247 2.5H29.3217L28.2731 1.42578C27.3822 0.510781 26.1743 0 24.9125 0H19.0875ZM3.36673 12.5L7.09433 45.6592C7.41649 48.1342 9.4969 50 11.9326 50H32.0626C34.4983 50 36.5811 48.1371 36.9057 45.6396L40.6333 12.5H3.36673Z" fill="#DC0000"/>
</svg>
