<svg width="48" height="48" viewBox="0 0 48 48" fill="none" xmlns="http://www.w3.org/2000/svg">
<rect x="0.5" y="0.5" width="47" height="47" stroke="#EFEFEF"/>
<path d="M0 6H48V9.53674e-07H0V6Z" fill="#EFEFEF"/>
<path d="M25.7814 42.1091C25.0022 42.8797 23.7478 42.8797 22.9686 42.1091L14.71 33.9412C13.4394 32.6845 14.3293 30.5192 16.1164 30.5192H17.125C18.2296 30.5192 19.125 29.6238 19.125 28.5192V11.75C19.125 10.6454 20.0204 9.75 21.125 9.75H27.625C28.7296 9.75 29.625 10.6454 29.625 11.75V28.5192C29.625 29.6238 30.5204 30.5192 31.625 30.5192H32.6336C34.4207 30.5192 35.3106 32.6845 34.04 33.9412L25.7814 42.1091Z" fill="#FDA92D"/>
</svg>
