<svg width="54" height="54" viewBox="0 0 54 54" fill="none" xmlns="http://www.w3.org/2000/svg">
<path d="M38.6886 9.08192L44.9181 15.3085L38.6886 9.08192ZM42.6946 3.59657L25.8502 20.4409C24.9799 21.31 24.3863 22.4173 24.1443 23.6233L22.5884 31.4116L30.3768 29.8527C31.5827 29.6116 32.6886 29.0204 33.5592 28.1498L50.4035 11.3055C50.9096 10.7993 51.3112 10.1984 51.5851 9.53704C51.859 8.87569 52 8.16686 52 7.45102C52 6.73518 51.859 6.02635 51.5851 5.36501C51.3112 4.70366 50.9096 4.10274 50.4035 3.59657C49.8973 3.09039 49.2964 2.68887 48.635 2.41493C47.9737 2.14099 47.2648 2 46.549 2C45.8332 2 45.1243 2.14099 44.463 2.41493C43.8016 2.68887 43.2007 3.09039 42.6946 3.59657V3.59657Z" stroke="#EFEFEF" stroke-width="4" stroke-linecap="round" stroke-linejoin="round"/>
<path d="M46.1182 37.294V46.1176C46.1182 47.6777 45.4984 49.174 44.3952 50.2771C43.2921 51.3803 41.7959 52.0001 40.2357 52.0001H7.88242C6.32231 52.0001 4.82609 51.3803 3.72292 50.2771C2.61975 49.174 2 47.6777 2 46.1176V13.7643C2 12.2042 2.61975 10.708 3.72292 9.60482C4.82609 8.50165 6.32231 7.8819 7.88242 7.8819H16.7061" stroke="#EFEFEF" stroke-width="4" stroke-linecap="round" stroke-linejoin="round"/>
</svg>
