<svg width="213" height="174" viewBox="0 0 213 174" fill="none" xmlns="http://www.w3.org/2000/svg">
<path d="M178.637 20.4492H24.0976C18.2517 20.4492 13.5127 25.02 13.5127 30.6583V100.08C13.5127 105.718 18.2517 110.289 24.0976 110.289H178.637C184.483 110.289 189.222 105.718 189.222 100.08V30.6583C189.222 25.02 184.483 20.4492 178.637 20.4492Z" fill="#F9B552"/>
<path d="M189.223 36.7832H24.0981C11.2372 36.7832 0.81131 46.8392 0.81131 59.2432V151.125C0.81131 163.529 11.2372 173.585 24.0981 173.585H189.223C202.084 173.585 212.509 163.529 212.509 151.125V59.2432C212.509 46.8392 202.084 36.7832 189.223 36.7832Z" fill="#FFCF5C"/>
<path d="M83.3736 0.03125H24.0981C11.2372 0.03125 0.81131 10.0869 0.81131 22.4912V55.1601C0.81131 67.5647 11.2372 77.6201 24.0981 77.6201H83.3736C96.2348 77.6201 106.66 67.5647 106.66 55.1601V22.4912C106.66 10.0869 96.2348 0.03125 83.3736 0.03125Z" fill="#FFCF5C"/>
</svg>
