<svg width="32" height="32" viewBox="0 0 32 32" fill="none" xmlns="http://www.w3.org/2000/svg">
<circle cx="16" cy="16" r="15" stroke="#1A1D1F" stroke-width="2"/>
<path d="M14.904 25.36L13.68 13.48L18.816 12.688L17.28 25.144L14.904 25.36ZM14.424 10.816C13.992 10.368 13.776 9.84 13.776 9.232C13.776 8.624 13.992 8.104 14.424 7.672C14.872 7.224 15.4 7 16.008 7C16.616 7 17.136 7.224 17.568 7.672C18.016 8.104 18.24 8.624 18.24 9.232C18.24 9.84 18.016 10.368 17.568 10.816C17.136 11.248 16.616 11.464 16.008 11.464C15.4 11.464 14.872 11.248 14.424 10.816Z" fill="#1A1D1F"/>
</svg>
