<svg width="64" height="64" viewBox="0 0 64 64" fill="none" xmlns="http://www.w3.org/2000/svg">
<path d="M49.7995 63.9662L14.2627 64C6.4446 64.0071 0.0426502 57.6176 0.033766 49.7995L5.92365e-06 14.2627C-0.00710144 6.4446 6.38242 0.0426502 14.2005 0.033766L49.7373 5.92365e-06C57.5554 -0.00710144 63.9574 6.38242 63.9662 14.2005L64 49.7373C64.0089 57.5572 57.6176 63.9591 49.7995 63.9662Z" fill="url(#paint0_radial_489_626)"/>
<path d="M49.7995 63.9662L14.2627 64C6.4446 64.0071 0.0426502 57.6176 0.033766 49.7995L5.92365e-06 14.2627C-0.00710144 6.4446 6.38242 0.0426502 14.2005 0.033766L49.7373 5.92365e-06C57.5554 -0.00710144 63.9574 6.38242 63.9662 14.2005L64 49.7373C64.0089 57.5572 57.6176 63.9591 49.7995 63.9662Z" fill="url(#paint1_radial_489_626)"/>
<path d="M32.0014 44.4387C25.1445 44.4387 19.5635 38.8595 19.5635 32.0009C19.5635 25.1423 25.1445 19.563 32.0014 19.563C38.8582 19.563 44.4392 25.1423 44.4392 32.0009C44.4392 38.8595 38.8582 44.4387 32.0014 44.4387ZM32.0014 23.1167C27.1026 23.1167 23.1172 27.1021 23.1172 32.0009C23.1172 36.8996 27.1026 40.8851 32.0014 40.8851C36.9001 40.8851 40.8856 36.8996 40.8856 32.0009C40.8856 27.1021 36.9001 23.1167 32.0014 23.1167Z" fill="white"/>
<path d="M45.3274 21.3398C46.7994 21.3398 47.9926 20.1465 47.9926 18.6745C47.9926 17.2026 46.7994 16.0093 45.3274 16.0093C43.8554 16.0093 42.6621 17.2026 42.6621 18.6745C42.6621 20.1465 43.8554 21.3398 45.3274 21.3398Z" fill="white"/>
<path d="M42.6623 55.0997H21.3402C14.4834 55.0997 8.90234 49.5204 8.90234 42.6618V21.3397C8.90234 14.4811 14.4834 8.90186 21.3402 8.90186H42.6623C49.5191 8.90186 55.1002 14.4811 55.1002 21.3397V42.6618C55.1002 49.5204 49.5191 55.0997 42.6623 55.0997ZM21.3402 12.4555C16.4415 12.4555 12.456 16.441 12.456 21.3397V42.6618C12.456 47.5606 16.4415 51.546 21.3402 51.546H42.6623C47.561 51.546 51.5465 47.5606 51.5465 42.6618V21.3397C51.5465 16.441 47.561 12.4555 42.6623 12.4555H21.3402Z" fill="white"/>
<defs>
<radialGradient id="paint0_radial_489_626" cx="0" cy="0" r="1" gradientUnits="userSpaceOnUse" gradientTransform="translate(23.7922 64.0464) scale(79.7782 79.7781)">
<stop stop-color="#FFDD55"/>
<stop offset="0.328" stop-color="#FF543F"/>
<stop offset="0.3484" stop-color="#FC5245"/>
<stop offset="0.5039" stop-color="#E64771"/>
<stop offset="0.6433" stop-color="#D53E91"/>
<stop offset="0.7606" stop-color="#CC39A4"/>
<stop offset="0.8414" stop-color="#C837AB"/>
</radialGradient>
<radialGradient id="paint1_radial_489_626" cx="0" cy="0" r="1" gradientUnits="userSpaceOnUse" gradientTransform="translate(10.2984 -0.798915) scale(52.9736 35.2963)">
<stop stop-color="#4168C9"/>
<stop offset="0.9988" stop-color="#4168C9" stop-opacity="0"/>
</radialGradient>
</defs>
</svg>
