<svg width="64" height="64" viewBox="0 0 64 64" fill="none" xmlns="http://www.w3.org/2000/svg">
<path d="M64 55.1111C64 60.0213 60.0213 64 55.1111 64H8.88889C3.98044 64 0 60.0213 0 55.1111V8.88889C0 3.97867 3.98044 0 8.88889 0H55.1111C60.0213 0 64 3.97867 64 8.88889V55.1111Z" fill="#0078D4"/>
<path opacity="0.05" d="M42.6665 55.1109V37.1571C42.6665 34.1544 41.2104 32.3607 38.7696 32.3607C37.3207 32.3607 36.2558 33.1767 35.6069 34.7856C35.5767 34.8993 35.534 35.3633 35.5518 36.766L35.5553 55.1109H23.1109V21.3331H35.5553V23.2193C37.3722 21.966 39.5998 21.3331 42.2007 21.3331C50.2842 21.3331 55.1091 26.8318 55.1091 36.0424L55.1109 55.1109H42.6665ZM8.88867 55.1109V21.3331H15.0344C11.4736 21.3331 8.88867 18.7162 8.88867 15.1091C8.88867 11.5056 11.5162 8.88867 15.1358 8.88867C18.7127 8.88867 21.2602 11.4327 21.3331 15.0736C21.3331 18.7073 18.7038 21.3331 15.0842 21.3331H21.3331V55.1109H8.88867Z" fill="black"/>
<path opacity="0.07" d="M43.5551 54.2223V37.1574C43.5551 33.6498 41.7222 31.4721 38.7693 31.4721C36.4671 31.4721 35.3293 33.0934 34.7818 34.4534C34.636 34.8072 34.6556 36.2116 34.6627 36.8107L34.6662 54.2223H23.9996V22.2223H34.6662V25.1343C36.0796 23.6712 38.3551 22.2223 42.2005 22.2223C49.7258 22.2223 54.22 27.3885 54.22 36.0427L54.2218 54.2223H43.5551ZM9.77734 54.2223V22.2223H20.444V54.2223H9.77734ZM15.0342 20.4445C11.9889 20.4445 9.77734 18.2009 9.77734 15.1094C9.77734 12.0196 12.0316 9.77783 15.1356 9.77783C18.2005 9.77783 20.3818 11.9627 20.444 15.0916C20.444 18.2009 18.1898 20.4445 15.084 20.4445H15.0342Z" fill="black"/>
<path d="M10.667 23.1109H19.5559V53.3332H10.667V23.1109ZM15.0848 19.5554H15.035C12.3825 19.5554 10.667 17.5785 10.667 15.1092C10.667 12.5865 12.4359 10.6665 15.1363 10.6665C17.8403 10.6665 19.5061 12.5865 19.5559 15.1092C19.5559 17.5767 17.8403 19.5554 15.0848 19.5554ZM53.3337 53.3332H44.4448V37.1572C44.4448 33.2496 42.267 30.5829 38.7701 30.5829C36.1017 30.5829 34.6581 32.3821 33.9577 34.1207C33.7017 34.743 33.7781 36.4638 33.7781 37.3332V53.3332H24.8892V23.1109H33.7781V27.7616C35.0599 25.7776 37.067 23.1109 42.2012 23.1109C48.5621 23.1109 53.3319 27.1109 53.3319 36.0425L53.3337 53.3332Z" fill="white"/>
</svg>
