<svg width="133" height="153" viewBox="0 0 133 153" fill="none" xmlns="http://www.w3.org/2000/svg">
<path d="M133 128.659H0V146.046C0 149.888 2.97587 153 6.65 153H126.35C130.024 153 133 149.888 133 146.046V128.659Z" fill="#C48C00"/>
<path d="M23.2749 45.2045V55.6364H36.5749V45.2045C36.5749 27.919 49.9713 13.9091 66.4999 13.9091C83.0285 13.9091 96.4249 27.919 96.4249 45.2045V55.6364H109.725V45.2045C109.725 20.2377 90.3734 0 66.4999 0C42.6264 0 23.2749 20.2377 23.2749 45.2045Z" fill="url(#paint0_linear_102_562)"/>
<path d="M133 79.9774H0V62.591C0 58.7486 2.97587 55.6365 6.65 55.6365H126.35C130.024 55.6365 133 58.7486 133 62.591V79.9774Z" fill="#FAD500"/>
<path d="M133 79.9773H0V104.318H133V79.9773Z" fill="#EDBE00"/>
<path d="M133 104.318H0V128.659H133V104.318Z" fill="#E3A600"/>
<path d="M106.4 111.273C110.073 111.273 113.05 108.159 113.05 104.318C113.05 100.477 110.073 97.3635 106.4 97.3635C102.727 97.3635 99.75 100.477 99.75 104.318C99.75 108.159 102.727 111.273 106.4 111.273Z" fill="#3B3B3B"/>
<path d="M79.7999 111.273C83.4726 111.273 86.4499 108.159 86.4499 104.318C86.4499 100.477 83.4726 97.3635 79.7999 97.3635C76.1272 97.3635 73.1499 100.477 73.1499 104.318C73.1499 108.159 76.1272 111.273 79.7999 111.273Z" fill="#3B3B3B"/>
<path d="M53.1998 111.273C56.8725 111.273 59.8498 108.159 59.8498 104.318C59.8498 100.477 56.8725 97.3635 53.1998 97.3635C49.5271 97.3635 46.5498 100.477 46.5498 104.318C46.5498 108.159 49.5271 111.273 53.1998 111.273Z" fill="#3B3B3B"/>
<path d="M26.6002 111.273C30.2729 111.273 33.2502 108.159 33.2502 104.318C33.2502 100.477 30.2729 97.3635 26.6002 97.3635C22.9275 97.3635 19.9502 100.477 19.9502 104.318C19.9502 108.159 22.9275 111.273 26.6002 111.273Z" fill="#3B3B3B"/>
<defs>
<linearGradient id="paint0_linear_102_562" x1="66.4999" y1="54.4089" x2="66.4999" y2="-1.02927" gradientUnits="userSpaceOnUse">
<stop stop-color="#92A3B0"/>
<stop offset="0.015" stop-color="#A3B5C4"/>
<stop offset="0.032" stop-color="#AEC2D1"/>
<stop offset="0.046" stop-color="#B2C6D6"/>
</linearGradient>
</defs>
</svg>
