<svg width="99" height="102" viewBox="0 0 99 102" fill="none" xmlns="http://www.w3.org/2000/svg">
<rect width="99" height="102" rx="25" fill="#EFEFEF"/>
<path d="M5.6946 63V39.7273H10.6151V58.9432H20.5923V63H5.6946ZM44.331 51.3636C44.331 53.9015 43.8499 56.0606 42.8878 57.8409C41.9332 59.6212 40.6302 60.9811 38.9787 61.9205C37.3348 62.8523 35.4863 63.3182 33.4332 63.3182C31.3651 63.3182 29.509 62.8485 27.8651 61.9091C26.2211 60.9697 24.9219 59.6098 23.9673 57.8295C23.0128 56.0492 22.5355 53.8939 22.5355 51.3636C22.5355 48.8258 23.0128 46.6667 23.9673 44.8864C24.9219 43.1061 26.2211 41.75 27.8651 40.8182C29.509 39.8788 31.3651 39.4091 33.4332 39.4091C35.4863 39.4091 37.3348 39.8788 38.9787 40.8182C40.6302 41.75 41.9332 43.1061 42.8878 44.8864C43.8499 46.6667 44.331 48.8258 44.331 51.3636ZM39.3423 51.3636C39.3423 49.7197 39.0961 48.3333 38.6037 47.2045C38.1188 46.0758 37.4332 45.2197 36.5469 44.6364C35.6605 44.053 34.6226 43.7614 33.4332 43.7614C32.2438 43.7614 31.206 44.053 30.3196 44.6364C29.4332 45.2197 28.7438 46.0758 28.2514 47.2045C27.7666 48.3333 27.5241 49.7197 27.5241 51.3636C27.5241 53.0076 27.7666 54.3939 28.2514 55.5227C28.7438 56.6515 29.4332 57.5076 30.3196 58.0909C31.206 58.6742 32.2438 58.9659 33.4332 58.9659C34.6226 58.9659 35.6605 58.6742 36.5469 58.0909C37.4332 57.5076 38.1188 56.6515 38.6037 55.5227C39.0961 54.3939 39.3423 53.0076 39.3423 51.3636Z" fill="#FDA92D"/>
<path d="M63.4077 47.25C63.2486 46.697 63.0251 46.2083 62.7372 45.7841C62.4493 45.3523 62.0971 44.9886 61.6804 44.6932C61.2713 44.3902 60.8016 44.1591 60.2713 44C59.7486 43.8409 59.169 43.7614 58.5327 43.7614C57.3433 43.7614 56.2978 44.0568 55.3963 44.6477C54.5024 45.2386 53.8054 46.0985 53.3054 47.2273C52.8054 48.3485 52.5554 49.7197 52.5554 51.3409C52.5554 52.9621 52.8016 54.3409 53.294 55.4773C53.7865 56.6136 54.4834 57.4811 55.3849 58.0795C56.2865 58.6705 57.3509 58.9659 58.5781 58.9659C59.6918 58.9659 60.6425 58.7689 61.4304 58.375C62.2259 57.9735 62.8319 57.4091 63.2486 56.6818C63.6728 55.9545 63.8849 55.0947 63.8849 54.1023L64.8849 54.25H58.8849V50.5455H68.6236V53.4773C68.6236 55.5227 68.1918 57.2803 67.3281 58.75C66.4645 60.2121 65.2751 61.3409 63.7599 62.1364C62.2448 62.9242 60.5099 63.3182 58.5554 63.3182C56.3736 63.3182 54.4569 62.8371 52.8054 61.875C51.1539 60.9053 49.866 59.5303 48.9418 57.75C48.0251 55.9621 47.5668 53.8409 47.5668 51.3864C47.5668 49.5 47.8395 47.8182 48.3849 46.3409C48.938 44.8561 49.7107 43.5985 50.7031 42.5682C51.6955 41.5379 52.8509 40.7538 54.169 40.2159C55.4872 39.678 56.9152 39.4091 58.4531 39.4091C59.7713 39.4091 60.9986 39.6023 62.1349 39.9886C63.2713 40.3674 64.2789 40.9053 65.1577 41.6023C66.044 42.2992 66.7675 43.1288 67.3281 44.0909C67.8887 45.0455 68.2486 46.0985 68.4077 47.25H63.4077ZM93.706 51.3636C93.706 53.9015 93.2249 56.0606 92.2628 57.8409C91.3082 59.6212 90.0052 60.9811 88.3537 61.9205C86.7098 62.8523 84.8613 63.3182 82.8082 63.3182C80.7401 63.3182 78.884 62.8485 77.2401 61.9091C75.5961 60.9697 74.2969 59.6098 73.3423 57.8295C72.3878 56.0492 71.9105 53.8939 71.9105 51.3636C71.9105 48.8258 72.3878 46.6667 73.3423 44.8864C74.2969 43.1061 75.5961 41.75 77.2401 40.8182C78.884 39.8788 80.7401 39.4091 82.8082 39.4091C84.8613 39.4091 86.7098 39.8788 88.3537 40.8182C90.0052 41.75 91.3082 43.1061 92.2628 44.8864C93.2249 46.6667 93.706 48.8258 93.706 51.3636ZM88.7173 51.3636C88.7173 49.7197 88.4711 48.3333 87.9787 47.2045C87.4938 46.0758 86.8082 45.2197 85.9219 44.6364C85.0355 44.053 83.9976 43.7614 82.8082 43.7614C81.6188 43.7614 80.581 44.053 79.6946 44.6364C78.8082 45.2197 78.1188 46.0758 77.6264 47.2045C77.1416 48.3333 76.8991 49.7197 76.8991 51.3636C76.8991 53.0076 77.1416 54.3939 77.6264 55.5227C78.1188 56.6515 78.8082 57.5076 79.6946 58.0909C80.581 58.6742 81.6188 58.9659 82.8082 58.9659C83.9976 58.9659 85.0355 58.6742 85.9219 58.0909C86.8082 57.5076 87.4938 56.6515 87.9787 55.5227C88.4711 54.3939 88.7173 53.0076 88.7173 51.3636Z" fill="#121212"/>
</svg>
