<svg width="32" height="32" viewBox="0 0 32 32" fill="none" xmlns="http://www.w3.org/2000/svg">
<path d="M30.1717 0.000740283C30.1055 0.00283271 30.0394 0.00862555 29.9739 0.0180916H21.3222C21.0867 0.0147618 20.8529 0.0582595 20.6344 0.146057C20.4159 0.233854 20.2171 0.364199 20.0494 0.529518C19.8817 0.694836 19.7486 0.891832 19.6577 1.10906C19.5668 1.32628 19.52 1.5594 19.52 1.79486C19.52 2.03033 19.5668 2.26345 19.6577 2.48067C19.7486 2.6979 19.8817 2.89489 20.0494 3.06021C20.2171 3.22553 20.4159 3.35588 20.6344 3.44367C20.8529 3.53147 21.0867 3.57497 21.3222 3.57164H25.917L9.40479 20.0831C9.23426 20.2469 9.09812 20.443 9.00433 20.6599C8.91053 20.8769 8.86099 21.1105 8.85858 21.3469C8.85618 21.5832 8.90096 21.8177 8.99032 22.0366C9.07967 22.2554 9.2118 22.4543 9.37897 22.6214C9.54613 22.7886 9.74497 22.9207 9.96384 23.0101C10.1827 23.0994 10.4172 23.1442 10.6536 23.1418C10.89 23.1394 11.1235 23.0898 11.3405 22.996C11.5575 22.9023 11.7536 22.7661 11.9174 22.5956L28.4295 6.08411V10.6787C28.4262 10.9142 28.4697 11.1479 28.5575 11.3664C28.6453 11.5849 28.7757 11.7838 28.941 11.9514C29.1063 12.1191 29.3033 12.2523 29.5206 12.3431C29.7378 12.434 29.9709 12.4808 30.2064 12.4808C30.4419 12.4808 30.675 12.434 30.8922 12.3431C31.1095 12.2523 31.3065 12.1191 31.4718 11.9514C31.6371 11.7838 31.7675 11.5849 31.8553 11.3664C31.9431 11.1479 31.9866 10.9142 31.9832 10.6787V2.02043C32.0186 1.76462 31.9978 1.50417 31.9223 1.25722C31.8468 1.01027 31.7183 0.782744 31.5459 0.590495C31.3734 0.398247 31.1612 0.245893 30.9238 0.144041C30.6865 0.0421889 30.4298 -0.00671296 30.1717 0.000740283ZM3.55369 0.0180916C1.61149 0.0180916 0 1.62951 0 3.57164V28.4465C0 30.3886 1.61149 32 3.55369 32H28.4295C30.3717 32 31.9832 30.3886 31.9832 28.4465V17.7858C31.9866 17.5504 31.9431 17.3166 31.8553 17.0981C31.7675 16.8796 31.6371 16.6808 31.4718 16.5131C31.3065 16.3454 31.1095 16.2123 30.8922 16.1214C30.675 16.0305 30.4419 15.9837 30.2064 15.9837C29.9709 15.9837 29.7378 16.0305 29.5206 16.1214C29.3033 16.2123 29.1063 16.3454 28.941 16.5131C28.7757 16.6808 28.6453 16.8796 28.5575 17.0981C28.4697 17.3166 28.4262 17.5504 28.4295 17.7858V28.4465H3.55369V3.57164H14.2148C14.4502 3.57497 14.684 3.53147 14.9025 3.44367C15.121 3.35588 15.3198 3.22553 15.4875 3.06021C15.6552 2.89489 15.7884 2.6979 15.8792 2.48067C15.9701 2.26345 16.0169 2.03033 16.0169 1.79486C16.0169 1.5594 15.9701 1.32628 15.8792 1.10906C15.7884 0.891832 15.6552 0.694836 15.4875 0.529518C15.3198 0.364199 15.121 0.233854 14.9025 0.146057C14.684 0.0582595 14.4502 0.0147618 14.2148 0.0180916H3.55369Z" fill="#1A1D1F"/>
</svg>
