<svg width="81" height="71" viewBox="0 0 81 71" fill="none" xmlns="http://www.w3.org/2000/svg">
<path d="M35.5 20.7629V3H3V68.5H35.5V50.5" stroke="#1A1D1F" stroke-width="5" stroke-linecap="round" stroke-linejoin="round"/>
<path d="M46 50.5V68.5H78.5V3H46V21" stroke="#1A1D1F" stroke-width="5" stroke-linecap="round" stroke-linejoin="round"/>
<path d="M17 33.5C15.6193 33.5 14.5 34.6193 14.5 36C14.5 37.3807 15.6193 38.5 17 38.5V33.5ZM17 38.5H62V33.5H17V38.5Z" fill="#1A1D1F"/>
<path d="M26 36C26 39.3137 23.3137 42 20 42C16.6863 42 14 39.3137 14 36C14 32.6863 16.6863 30 20 30C23.3137 30 26 32.6863 26 36Z" fill="#1A1D1F"/>
<path d="M54 25L63 36.5L54 46.5" stroke="#1A1D1F" stroke-width="4" stroke-linecap="round" stroke-linejoin="round"/>
</svg>
