<svg viewBox="0 0 64 64" fill="none" xmlns="http://www.w3.org/2000/svg">
<path d="M26.6506 0C11.9634 0 0 11.9634 0 26.6506C0 41.3377 11.9634 53.3011 26.6506 53.3011C33.0374 53.3011 38.9029 51.0331 43.4998 47.2683L59.412 63.1806C59.6576 63.4364 59.9517 63.6406 60.2772 63.7813C60.6027 63.9219 60.953 63.9963 61.3075 63.9999C61.6621 64.0035 62.0138 63.9363 62.3421 63.8023C62.6704 63.6682 62.9686 63.4701 63.2193 63.2193C63.4701 62.9686 63.6682 62.6704 63.8023 62.3421C63.9363 62.0138 64.0035 61.6621 63.9999 61.3075C63.9963 60.953 63.9219 60.6027 63.7813 60.2772C63.6406 59.9517 63.4364 59.6576 63.1806 59.412L47.2683 43.4998C51.0331 38.9029 53.3011 33.0374 53.3011 26.6506C53.3011 11.9634 41.3377 0 26.6506 0ZM26.6506 5.33011C38.4571 5.33011 47.971 14.844 47.971 26.6506C47.971 38.4571 38.4571 47.971 26.6506 47.971C14.844 47.971 5.33011 38.4571 5.33011 26.6506C5.33011 14.844 14.844 5.33011 26.6506 5.33011Z" fill="#1A1D1F"/>
</svg>
