<svg width="144" height="192" viewBox="0 0 144 192" fill="none" xmlns="http://www.w3.org/2000/svg">
<path d="M96 0H0V192H144V48L96 0ZM84 60H132V180H12V12H84V60ZM96 48V12L132 48H96Z" fill="#EFEFEF"/>
<path d="M24 138V168H120V147.6C120 147.6 121.2 132 104.4 129.6C88.8 127.2 86.4 134.4 74.4 135.6C64.8 135.6 67.2 120 48 120C33.6 120 24 138 24 138Z" fill="#EFEFEF"/>
<path d="M120 102C120 111.936 111.936 120 102 120C92.064 120 84 111.936 84 102C84 92.064 92.064 84 102 84C111.936 84 120 92.064 120 102Z" fill="#EFEFEF"/>
</svg>
