<svg width="128" height="128" viewBox="0 0 128 128" fill="none" xmlns="http://www.w3.org/2000/svg">
<rect x="0.5" y="-0.5" width="127" height="127" transform="matrix(1 0 0 -1 0 127)" stroke="#EFEFEF"/>
<path d="M0 112H128V128H0V112Z" fill="#EFEFEF"/>
<path d="M66.4064 13.3909C65.6272 12.6203 64.3728 12.6203 63.5936 13.3909L33.46 43.1934C32.1894 44.4501 33.0793 46.6154 34.8664 46.6154H49C50.1046 46.6154 51 47.5108 51 48.6154V100C51 101.105 51.8954 102 53 102H77C78.1046 102 79 101.105 79 100V48.6154C79 47.5108 79.8954 46.6154 81 46.6154H95.1336C96.9207 46.6154 97.8106 44.4501 96.54 43.1934L66.4064 13.3909Z" fill="#FDA92D"/>
</svg>
