<?xml version='1.0' encoding='utf-8'?>
<svg xmlns="http://www.w3.org/2000/svg" version="1.1" width="1770px" height="1265px" viewBox="-345 433 1770 1265"> <g id="layer1"> <g style="fill:rgb(3,169,244); fill-opacity:1.0; stroke-linejoin: miter"> <path d="M-345.001,432.17953C-345.21832,432.17953,-345.42676,432.26587,-345.58044,432.41956C-345.73413,432.57324,-345.82047,432.78168,-345.82047,432.999L-345.81946,1698.0C-345.81946,1698.4525,-345.45258,1698.8195,-345.0,1698.8195L1425.001,1698.8204C1425.2183,1698.8204,1425.4268,1698.7341,1425.5804,1698.5804C1425.7341,1698.4268,1425.8204,1698.2183,1425.8204,1698.001L1425.8195,433.0C1425.8195,432.54742,1425.4525,432.18054,1425.0,432.18054L-345.001,432.17953 Z"/> </g> <g style="fill:rgb(30,118,183); fill-opacity:1.0; stroke-linejoin: miter"> <path d="M742.8302,681.3521L742.8299,1287.5396L368.85428,1287.5415L368.8541,681.35236 Z"/> </g> <g style="fill:rgb(255,255,255); fill-opacity:1.0; stroke-linejoin: miter"> <path d="M686.3834,636.1351L686.38367,636.13556L686.38367,636.1359L686.3834,636.1351 Z"/> </g> <g style="fill:rgb(0,0,0); fill-opacity:1.0; stroke-linejoin: miter"> <path d="M742.8299,1287.5396L368.85428,1287.5415L368.8541,681.35236L742.8302,681.35364L742.8299,1287.5396 Z M526.7409,1349.092C526.7409,1332.4255,540.12524,1318.9062,556.6386,1318.9062C573.15717,1318.9062,586.53577,1332.4255,586.53577,1349.092C586.5362,1365.7517,573.15717,1379.2952,556.6386,1379.2961C540.12573,1379.2727,526.7409,1365.7515,526.7409,1349.092 M767.9218,1376.4888L767.97296,1376.4905L767.97296,650.0193L767.97296,650.0141L767.97296,649.8674L767.9616,649.8692C767.8822,633.2806,754.42487,619.8563,737.8099,619.8563C737.691,619.8563,737.59515,619.8675,737.4877,619.8675L737.4877,619.8563L669.7346,619.85803L472.07318,619.8571L373.87494,619.8575C357.28256,619.86755,343.83603,633.2919,343.74536,649.8675L343.74005,649.8692L343.7403,1376.4819L343.785,1376.4832C343.7742,1376.7979,343.7403,1377.1091,343.7403,1377.437C343.7403,1393.6904,357.4014,1406.8713,374.25894,1406.8713C374.50726,1406.8713,374.7506,1406.8376,374.999,1406.8315L374.999,1406.8713L738.2217,1406.8735L738.2217,1406.8713C754.6223,1406.8713,767.96704,1393.6963,767.96704,1377.4373C767.97296,1377.1152,767.93335,1376.7991,767.9218,1376.4888 Z"/> </g> <g style="fill:rgb(60,70,79); fill-opacity:1.0; stroke-linejoin: miter"> <path d="M556.6386,1318.9062C573.15717,1318.9062,586.53577,1332.4255,586.53577,1349.092C586.5362,1365.7517,573.15717,1379.2952,556.6386,1379.2961C540.12573,1379.2727,526.7409,1365.7515,526.7409,1349.092C526.7409,1332.4255,540.12524,1318.9062,556.6386,1318.9062 Z"/> </g> <g style="fill:rgb(227,237,242); fill-opacity:0.99607843; stroke-linejoin: miter"> <path d="M341.18207,675.1202L341.18207,675.1207L341.18207,675.12036L341.18207,675.1202L341.18207,675.1207L341.18207,675.1202L341.18207,675.12036Q341.18207,675.1202,341.18207,675.1202 Z"/> </g> <g style="fill:rgb(255,183,159); fill-opacity:1.0; stroke-linejoin: miter"> <path d="M674.8932,1235.3123L674.89294,1235.314L674.8928,1235.3142L674.8932,1235.3123 Z"/> </g> <g style="fill:rgb(113,207,235); fill-opacity:1.0; stroke-linejoin: miter"> <path d="M592.5672,860.46234C603.5225,860.34595,612.3387,851.3361,612.2209,840.38043C612.1037,829.4254,603.0963,820.6085,592.1414,820.72473C581.1862,820.843,572.3692,829.8522,572.4871,840.80664C572.60565,851.763,581.6133,860.58093,592.5672,860.46234 Z"/> </g> <g style="fill:rgb(113,207,235); fill-opacity:1.0; stroke-linejoin: miter"> <path d="M605.6623,858.48914C601.7914,861.6029,596.89545,863.4944,591.5543,863.55115C586.346,863.6071,581.51984,861.9119,577.6334,859.01666C565.07355,861.1853,555.5808,872.19653,555.72186,885.352C555.8788,899.95685,567.6153,890.3358,582.21826,890.1784L603.5492,889.95013C618.1533,889.7935,630.0942,899.1622,629.9373,884.556C629.7894,870.7794,619.1299,859.5815,605.6623,858.48914 Z"/> </g> <g style="fill:rgb(255,255,255); fill-opacity:1.0; stroke-linejoin: miter"> <path d="M380.0986,810.41315L553.21265,808.5564L726.3268,806.7012Q727.95386,958.46814,729.58075,1110.2344L383.35303,1113.947Q381.72592,962.1801,380.0986,810.41315 Z"/> </g> <g style="fill:rgb(201,214,222); fill-opacity:1.0; stroke-linejoin: miter"> <path d="M439.97482,936.63513L554.5724,935.4061L669.1703,934.179Q669.40955,956.4886,669.6487,978.8Q555.05115,980.0283,440.45343,981.2568Q440.2142,958.9464,439.97482,936.63513 Z"/> </g> <g style="fill:rgb(34,43,50); fill-opacity:1.0; stroke-linejoin: miter"> <path d="M467.38522,946.1482L467.49005,955.9412L458.53033,953.15704L456.44275,959.94836L465.4024,962.7334L459.7268,970.7152L465.3883,974.8324L471.20633,966.7032L477.05182,974.5629L482.7689,970.46857L477.21622,963.038L486.2568,959.91736L484.02533,953.3163L474.553,956.44196L474.442,946.0732 Z"/> </g> <g style="fill:rgb(34,43,50); fill-opacity:1.0; stroke-linejoin: miter"> <path d="M503.6618,945.7593L503.76678,955.55273L494.80676,952.7683L492.71924,959.5599L501.6792,962.3438L496.00342,970.3274L501.66492,974.44336L507.4828,966.315L513.3287,974.1742L519.04584,970.0799L513.49304,962.6492L522.53357,959.5287L520.3026,952.92645L510.8296,956.0525L510.71844,945.68365 Z"/> </g> <g style="fill:rgb(34,43,50); fill-opacity:1.0; stroke-linejoin: miter"> <path d="M539.9383,945.37006L540.0433,955.16376L531.0836,952.37897L528.99615,959.17114L537.9556,961.95544L532.28,969.93835L537.9412,974.0546L543.75964,965.9269L549.60516,973.7846L555.3227,969.6906L549.76984,962.2611L558.81036,959.1399L556.5793,952.53766L547.1065,955.6644L546.99475,945.29443 Z"/> </g> <g style="fill:rgb(34,43,50); fill-opacity:1.0; stroke-linejoin: miter"> <path d="M576.21484,944.98157L576.3204,954.7744L567.3605,951.9914L565.2728,958.782L574.2327,961.5666L568.55707,969.5493L574.21783,973.666L580.03656,965.53705L585.882,973.39667L591.599,969.30206L586.0466,961.8729L595.08734,958.75073L592.85516,952.14856L583.38306,955.27527L583.2717,944.9058 Z"/> </g> <g style="fill:rgb(201,214,222); fill-opacity:1.0; stroke-linejoin: miter"> <path d="M440.60455,995.3475L669.79974,992.89105L670.2779,1037.5122L441.083,1039.969L440.60455,995.3475 Z"/> </g> <g style="fill:rgb(34,43,50); fill-opacity:1.0; stroke-linejoin: miter"> <path d="M468.4974,1000.6303L468.6025,1010.42267L459.64273,1007.63763L457.55505,1014.4296L466.51495,1017.21466L460.8393,1025.1965L466.50073,1029.3132L472.3189,1021.18463L478.16412,1029.0442L483.88132,1024.9497L478.32846,1017.51996L487.36926,1014.3979L485.13785,1007.7963L475.6653,1010.9239L475.55432,1000.55316 Z"/> </g> <g style="fill:rgb(34,43,50); fill-opacity:1.0; stroke-linejoin: miter"> <path d="M504.77417,1000.24066L504.87897,1010.03375L495.91907,1007.24896L493.83173,1014.0417L502.79132,1016.82635L497.1159,1024.8074L502.77753,1028.9231L508.59534,1020.7955L514.44104,1028.6553L520.15826,1024.561L514.60565,1017.1302L523.64575,1014.0086L521.4149,1007.40765L511.94214,1010.5339L511.8308,1000.165 Z"/> </g> <g style="fill:rgb(34,43,50); fill-opacity:1.0; stroke-linejoin: miter"> <path d="M541.051,999.8515L541.1559,1009.64496L532.19617,1006.8603L530.1084,1013.6519L539.0685,1016.43646L533.39233,1024.4192L539.054,1028.5354L544.87213,1020.40717L550.71735,1028.2661L556.4346,1024.1729L550.8821,1016.74176L559.9227,1013.62054L557.6913,1007.01935L548.21906,1010.14496L548.10785,999.7767 Z"/> </g> <g style="fill:rgb(0,188,233); fill-opacity:1.0; stroke-linejoin: miter"> <path d="M487.04028,1057.8855L555.8776,1057.1477L624.7147,1056.4109Q624.91943,1075.4414,625.1236,1094.4739Q556.2857,1095.2119,487.4485,1095.9504Q487.2442,1076.918,487.04028,1057.8855 Z"/> </g> <g style="fill:rgb(255,255,255); fill-opacity:1.0; stroke-linejoin: miter"> <path d="M567.52856,1062.6277Q567.2238,1062.6309,566.8088,1062.6624Q566.39355,1062.6948,566.0342,1062.7534Q565.98224,1063.0586,565.9585,1063.4473Q565.9628,1063.835,565.9658,1064.1394Q565.9693,1064.4438,566.0013,1064.8315Q566.0057,1065.2195,566.06464,1065.5513Q566.425,1065.6033,566.84106,1065.6265Q567.2568,1065.6497,567.58875,1065.6475Q567.89355,1065.6431,568.3085,1065.6113Q568.6959,1065.5801,569.028,1065.52Q569.08,1065.1875,569.1033,1064.7991Q569.099,1064.4114,569.0956,1064.1064Q569.0923,1063.8018,569.0607,1063.4138Q569.05646,1063.0259,568.9978,1062.7222Q568.66486,1062.6702,568.2492,1062.6467Q567.83344,1062.6238,567.52856,1062.6277 Z M555.7297,1070.4546Q557.22534,1070.438,557.9546,1071.29Q558.68353,1072.113,558.69775,1073.4426Q558.712,1074.7439,558.0004,1075.583Q557.28937,1076.4216,555.7936,1076.436Q554.2981,1076.4524,553.56903,1075.6294Q552.86774,1074.8066,552.8541,1073.5042Q552.8397,1072.1753,553.55035,1071.3091Q554.2337,1070.4712,555.7297,1070.4546 Z M540.36096,1070.8682Q542.27155,1070.8491,543.20056,1072.2231Q544.129,1073.5701,544.1555,1076.0349Q544.18207,1078.5005,543.28296,1079.895Q542.384,1081.29,540.4728,1081.3108Q538.56177,1081.331,537.6327,1079.956Q536.7317,1078.5808,536.7052,1076.115Q536.6786,1073.6504,537.5777,1072.2551Q538.44977,1070.8899,540.36096,1070.8682 Z M564.90704,1068.6946Q564.85394,1068.917,564.82965,1069.221Q564.8049,1069.4985,564.808,1069.7759Q564.81085,1070.0518,564.8418,1070.3577Q564.87225,1070.6343,564.93036,1070.8545L566.7304,1070.8359L566.8598,1082.8838Q567.1651,1082.9363,567.5532,1082.9597Q567.91345,1082.9834,568.19055,1082.981Q568.4951,1082.9773,568.8827,1082.9451Q569.24255,1082.9138,569.5459,1082.8557L569.3939,1068.6467 Z M580.96735,1068.1897Q580.10876,1068.1992,579.39154,1068.4563Q578.67395,1068.6853,578.12427,1069.0789Q577.57404,1069.4448,577.1357,1069.9207Q576.7255,1070.396,576.4531,1070.8699Q576.44836,1070.398,576.357,1069.6802Q576.26715,1068.9883,576.17957,1068.5737Q575.8743,1068.5215,575.5972,1068.4963Q575.3473,1068.4722,575.0428,1068.4744Q574.7381,1068.4788,574.434,1068.509Q574.1572,1068.5398,573.8533,1068.5984L574.0057,1082.8069Q574.31067,1082.8591,574.6987,1082.8821Q575.08673,1082.9067,575.3917,1082.9031Q575.696,1082.8997,576.0837,1082.8682Q576.44366,1082.8359,576.74756,1082.7778L576.6699,1075.5767Q576.656,1074.2739,576.9786,1073.3296Q577.2737,1072.4116,577.79333,1071.8242Q578.3133,1071.2383,579.0029,1070.9531Q579.6922,1070.6687,580.4674,1070.6611Q581.7971,1070.6472,582.4166,1071.5815Q583.03595,1072.4878,583.05646,1074.4551L583.1452,1082.7083Q583.45044,1082.7605,583.83875,1082.7847Q584.199,1082.8079,584.50354,1082.8052Q584.808,1082.8013,585.19586,1082.7693Q585.5834,1082.738,585.8871,1082.6787L585.79095,1073.6775Q585.7618,1070.9358,584.583,1069.5364Q583.40466,1068.1638,580.96735,1068.1897 Z M527.56085,1062.8896Q527.2562,1062.8936,526.8688,1062.9246Q526.5086,1062.957,526.20465,1063.0149L526.38336,1079.6335Q526.3955,1080.7412,526.70776,1081.4858Q527.0203,1082.2305,527.55145,1082.6687Q528.08246,1083.1057,528.7769,1083.2917Q529.4715,1083.4785,530.27466,1083.47Q530.74603,1083.4646,531.2988,1083.4036Q531.85266,1083.3694,532.2389,1083.2266Q532.2264,1082.0918,531.96704,1081.1252Q531.74603,1081.1824,531.4141,1081.2139Q531.1098,1081.2454,530.8603,1081.248Q530.5004,1081.2512,530.16705,1081.1721Q529.86176,1081.1196,529.60986,1080.8738Q529.3861,1080.6533,529.2424,1080.2129Q529.09973,1079.771,529.091,1078.9956L528.91925,1062.9866Q528.61426,1062.9331,528.22546,1062.9104Q527.86554,1062.886,527.56085,1062.8896 Z M540.3367,1068.625Q538.6749,1068.6428,537.43475,1069.2375Q536.19464,1069.833,535.37445,1070.8398Q534.5542,1071.8455,534.1534,1073.2058Q533.7803,1074.5681,533.7973,1076.1467Q533.8138,1077.7253,534.2439,1079.0786Q534.6465,1080.4309,535.4878,1081.419Q536.3295,1082.4077,537.58246,1082.9761Q538.8347,1083.5168,540.4963,1083.4985Q542.1581,1083.4812,543.398,1082.8862Q544.6387,1082.3186,545.4588,1081.3123Q546.2791,1080.3059,546.67993,1078.9436Q547.0528,1077.5833,547.0361,1076.0039Q547.0195,1074.4258,546.5889,1073.073Q546.18677,1071.7202,545.3452,1070.7322Q544.50354,1069.7434,543.2512,1069.1758Q541.9984,1068.6072,540.3367,1068.625 Z M554.49927,1083.375Q554.54596,1083.3743,554.59375,1083.375L557.75195,1083.3972Q559.1645,1083.4092,559.6957,1083.8474Q560.22705,1084.2834,560.2356,1085.1157Q560.2476,1086.2234,559.0092,1086.9836Q557.7707,1087.7175,555.5548,1087.7415Q554.80707,1087.749,554.1688,1087.6453Q553.5588,1087.5681,553.08527,1087.3247Q552.6397,1087.1072,552.3865,1086.7224Q552.13306,1086.3379,552.12665,1085.728Q552.1156,1084.759,552.7453,1084.0593Q553.3242,1083.3882,554.49927,1083.375 Z M555.7082,1068.4604Q554.3232,1068.4756,553.2473,1068.874Q552.1716,1069.2734,551.4312,1069.9746Q550.7183,1070.6477,550.3402,1071.565Q549.96204,1072.4836,549.9736,1073.5354Q549.9871,1074.8098,550.552,1075.8289Q551.1168,1076.8196,552.03723,1077.447Q551.26807,1078.0371,550.8053,1078.79Q550.3706,1079.542,550.38135,1080.5676Q550.3902,1081.3696,550.78375,1081.9199Q551.1494,1082.4421,551.7073,1082.7964Q550.7433,1083.3333,550.1441,1084.2544Q549.5441,1085.147,549.55615,1086.2825Q549.5765,1088.1934,551.082,1089.0635Q552.58716,1089.9341,555.4395,1089.904Q557.0735,1089.8857,558.4827,1089.51Q559.86346,1089.1633,560.8812,1088.488Q561.8993,1087.8394,562.471,1086.9192Q563.04333,1086.0266,563.03094,1084.8911Q563.0121,1083.1465,561.89355,1082.1611Q560.7752,1081.176,558.30963,1081.1472L554.6255,1081.1304Q553.3786,1081.1167,553.0145,1080.7329Q552.6505,1080.3765,552.6452,1079.8779Q552.6397,1079.3516,553.02216,1078.8762Q553.3775,1078.4297,553.7627,1078.2041Q554.67975,1078.4424,555.81506,1078.4312Q557.0614,1078.4182,558.1098,1078.0464Q559.15906,1077.7024,559.92706,1077.0305Q560.6681,1076.3853,561.0737,1075.4661Q561.47955,1074.5488,561.46735,1073.4121Q561.4602,1072.6929,561.2878,1072.1404Q561.11566,1071.5876,560.8058,1071.1201L563.2982,1071.0938Q563.3503,1070.7607,563.37445,1070.429Q563.3983,1070.096,563.3953,1069.791Q563.3883,1069.1536,563.27216,1068.6292Q562.1365,1068.6406,561.19806,1068.9558Q560.25946,1069.2427,559.71,1069.6926Q558.98413,1069.1458,557.9554,1068.7964Q556.9544,1068.4463,555.7082,1068.4604 Z"/> </g> <g style="fill:rgb(254,194,153); fill-opacity:1.0; stroke-linejoin: miter"> <path d="M586.3345,1094.0176C584.1861,1094.9265,581.4056,1096.4932,579.42175,1097.8887C573.73584,1101.9253,569.8095,1106.573,567.23914,1112.3857C563.9352,1119.8389,563.5706,1127.5122,565.97375,1139.2471C567.47455,1146.5642,568.9437,1151.4851,582.9161,1196.1897C602.66516,1259.3281,603.1343,1260.8821,615.446,1303.3545C621.67444,1324.8889,627.09625,1343.6377,627.4971,1345.022L628.2067,1347.5427L626.1414,1345.5188C622.8473,1342.2908,614.9881,1335.9253,608.0409,1330.8589C599.9385,1324.9482,591.1918,1320.1138,583.4062,1317.2566C575.1488,1314.2131,567.18176,1312.9336,559.4946,1313.4387C555.69293,1313.687,553.4739,1314.1326,548.7954,1315.5461C544.8783,1316.7295,544.1107,1316.9961,542.3243,1317.8992C534.0521,1322.0249,527.7546,1327.3022,522.3844,1334.6184C520.63403,1337.0159,517.6312,1342.7166,516.0349,1346.7122C514.5566,1350.4126,514.3091,1351.197,514.46716,1351.7202C514.6446,1352.3071,523.6509,1359.6067,529.38116,1363.7942C535.604,1368.3523,539.31824,1370.6223,551.8455,1377.4299C561.4399,1382.6655,564.27545,1384.3181,567.62036,1386.6829C578.1745,1394.1206,593.3323,1408.3186,609.5651,1426.0178C615.47217,1432.4536,616.13226,1433.2058,625.72186,1444.1543C629.316,1448.2603,634.0124,1453.6086,636.1548,1456.0596C660.47205,1483.7932,674.8634,1498.0337,690.24176,1509.638C705.5279,1521.1672,719.54034,1528.0801,734.6675,1531.522C750.707,1535.1748,765.00604,1535.3027,784.38763,1531.9741C806.6661,1528.1519,835.75574,1519.7798,851.5498,1512.654C854.4276,1511.3523,859.348,1508.7925,862.1791,1507.1064C869.60504,1502.6997,879.95844,1495.0371,887.93463,1488.0413C896.8408,1480.2283,903.7274,1472.4885,909.12885,1464.2456C918.4542,1449.9714,926.8089,1427.6143,929.04517,1410.8425C930.7459,1398.1978,929.61426,1388.0342,924.10425,1366.4731C922.61774,1360.6924,913.9888,1332.1296,910.25806,1320.6401C905.27783,1305.3569,900.7497,1291.6858,894.39307,1272.8213C890.5696,1261.4812,889.5123,1258.0969,889.7182,1257.8616C889.7988,1257.7852,889.88245,1257.4314,889.9233,1257.1077C889.9741,1256.5901,889.73145,1255.7288,888.35266,1251.6802C886.01624,1244.8054,884.7761,1241.9614,882.5767,1238.5764C880.2418,1234.9722,877.89404,1232.7571,874.3549,1230.7805C867.8894,1227.1956,859.4181,1225.9646,850.15796,1227.2214C847.75305,1227.5674,840.96185,1229.5496,839.19116,1230.448C834.3895,1232.8853,830.70764,1235.936,828.1091,1239.594C826.26373,1242.1936,824.5343,1245.5195,823.16974,1249.081L822.56976,1250.6472L822.36957,1249.583C821.25256,1243.8804,821.04144,1243.0095,819.73065,1238.9575C818.40094,1234.842,817.83167,1233.4739,816.4128,1231.0122C812.61694,1224.4053,806.506,1219.4148,797.9512,1215.9597C792.84235,1213.8862,786.3829,1212.4978,781.36505,1212.3867C773.3513,1212.2119,766.6703,1214.386,760.73517,1219.0862C754.4243,1224.0906,749.15576,1232.259,747.92755,1238.9636C747.7672,1239.8086,747.5955,1240.5005,747.5481,1240.5149C747.50037,1240.529,747.06415,1239.8306,746.57074,1238.9412C745.1949,1236.4492,742.60425,1232.4556,741.00696,1230.377C737.29865,1225.4915,733.951,1222.488,729.416,1219.9644C725.66986,1217.8767,722.43713,1216.7422,717.86865,1215.9414C705.9998,1213.833,693.8386,1217.4028,685.34424,1225.49C680.04895,1230.5334,677.05457,1236.3186,675.6877,1244.2256L675.2246,1246.8752L658.3839,1190.9565C640.925,1132.9929,640.7289,1132.343,637.72266,1124.6843C633.4505,1113.8083,629.39197,1106.6753,624.614,1101.6292C621.26556,1098.1062,617.8918,1095.647,613.93695,1093.8997C608.1718,1091.3147,602.6022,1090.5222,595.9754,1091.3298C594.17145,1091.5459,588.21796,1093.2063,586.3345,1094.0176 Z M809.5882,1226.9819C811.2578,1228.7275,814.0216,1232.5481,813.991,1233.0767C813.99725,1233.2129,808.81476,1226.7136,808.0335,1225.6167C807.752,1225.2004,808.67236,1226.0125,809.5882,1226.9819 Z"/> </g> <g style="fill:rgb(254,254,254); fill-opacity:1.0; stroke-linejoin: miter"> <path d="M541.3408,1177.6359L541.3408,1177.6364L582.45337,1175.4012L541.3408,1177.6359"/> </g> <g style="fill:rgb(254,254,254); fill-opacity:1.0; stroke-linejoin: miter"> <path d="M452.60907,1262.0153L444.9464,1329.1733L437.28375,1396.3314L452.60907,1262.0153"/> </g> <g style="fill:rgb(254,254,254); fill-opacity:1.0; stroke-linejoin: miter"> </g> <g style="fill:rgb(255,255,255); fill-opacity:0.99607843; stroke-linejoin: miter"> <path d="M584.50757,869.908L584.50757,869.90826L584.50757,869.9084L584.50757,869.908 Z"/> </g> <g style="fill:rgb(28,138,219); fill-opacity:1.0; stroke-linejoin: miter"> <path d="M549.934,821.74805C535.9413,828.5817,520.20605,834.1253,507.34222,834.21625C515.2433,883.07825,519.77686,901.961,549.9341,917.4177C580.09143,901.96106,584.62494,883.0783,592.52594,834.2162C579.6621,834.12524,563.9268,828.5815,549.934,821.74805 Z"/> </g> <g style="fill:rgb(255,255,255); fill-opacity:1.0; stroke-linejoin: miter"> <path d="M550.7416,828.6879C538.8161,834.5119,525.4059,839.23645,514.4427,839.31384C521.17633,880.9564,525.04004,897.0492,550.7416,910.2221C576.443,897.04913,580.3067,880.9564,587.0404,839.3137C576.0771,839.2364,562.6669,834.5116,550.7416,828.6879 Z"/> </g> <g style="fill:rgb(0,0,0); fill-opacity:0.20784314; stroke-linejoin: miter"> <path d="M549.934,821.74805C535.9413,828.5817,520.20605,834.1253,507.34222,834.21625C515.2433,883.07825,519.77686,901.961,549.9341,917.4177C550.401,917.1784,550.8618,916.9383,551.3165,916.6971Q551.31757,869.5571,551.31757,822.41724C550.85535,822.19574,550.39374,821.97266,549.934,821.74805 Z"/> </g> </g> </svg>