<svg width="64" height="64" viewBox="0 0 64 64" fill="none" xmlns="http://www.w3.org/2000/svg">
<rect width="64" height="64" rx="32" fill="white"/>
<path d="M10.6667 0C4.77562 0 0 4.77562 0 10.6667V53.3333C0 59.2244 4.77562 64 10.6667 64H53.3333C59.2244 64 64 59.2244 64 53.3333V10.6667C64 4.77562 59.2244 0 53.3333 0H10.6667ZM13.8452 13.7143H25.9405L34.5298 25.9196L44.9524 13.7143H48.7619L36.25 28.3631L51.6786 50.2857H39.5863L29.619 36.125L17.5238 50.2857H13.7143L27.8988 33.6815L13.8452 13.7143ZM19.6786 16.7619L41.1756 47.2381H45.8452L24.3482 16.7619H19.6786Z" fill="black"/>
</svg>
