<svg width="31" height="31" viewBox="0 0 31 31" fill="none" xmlns="http://www.w3.org/2000/svg">
<path d="M2.20975 8.39542C2.20975 11.83 2.20975 15.2646 2.20975 18.6991C2.20975 20.6923 1.14627 25.8999 3.80861 26.1802C4.94192 26.2995 5.9694 27.1663 7.10501 27.4237C8.28514 27.6912 9.39593 27.3458 10.3817 28.1343C11.527 29.0506 15.1509 28.2923 16.5007 28.2923C18.5494 28.2923 25.8285 29.3974 26.3505 27.0487C27.1096 23.6326 27.0808 20.3614 27.0808 16.745C27.0808 14.4937 27.0742 13.1783 27.9098 11.1589C28.4797 9.78174 29.2734 7.04519 27.3571 6.97421C25.8067 6.91679 25.204 5.55301 23.6462 5.55301C21.3499 5.55301 19.0536 5.55301 16.7573 5.55301C14.5165 5.55301 12.2661 5.4908 10.0264 5.55301C8.85955 5.58542 8.07257 6.1595 7.18396 6.8163C6.21722 7.53085 5.30864 6.46125 4.69686 7.68482" stroke="white" stroke-width="3" stroke-linecap="round"/>
<path d="M9.31575 13.3696C9.31575 15.7997 8.96045 18.0392 8.96045 20.4756" stroke="white" stroke-width="3" stroke-linecap="round"/>
<path d="M15.0005 13.3696C15.0005 14.679 15.0005 15.9883 15.0005 17.2977C15.0005 19.2205 17.8677 18.7751 19.2641 19.0544" stroke="white" stroke-width="3" stroke-linecap="round"/>
<path d="M21.3961 13.3696C20.4667 14.4151 20.6855 17.2021 20.6855 18.561C20.6855 19.6137 20.6855 20.6664 20.6855 21.7192C20.6855 22.7756 19.9749 23.5615 19.9749 24.7392" stroke="white" stroke-width="3" stroke-linecap="round"/>
<path d="M7.53914 2.7106C7.53914 3.98924 7.89675 5.90484 7.18384 6.97421" stroke="white" stroke-width="3" stroke-linecap="round"/>
<path d="M20.6854 2C19.3408 2.29881 19.9748 7.62292 19.9748 8.75071" stroke="white" stroke-width="3" stroke-linecap="round"/>
<path d="M7.89453 2.7106V8.39541" stroke="white" stroke-width="3" stroke-linecap="round"/>
<path d="M2.92041 9.10602C2.92041 10.7246 2.92041 12.3432 2.92041 13.9618C2.92041 15.9862 3.74856 17.5077 3.98631 19.4097C4.1722 20.8968 3.98631 22.5279 3.98631 24.0286" stroke="white" stroke-width="3" stroke-linecap="round"/>
<path d="M3.98608 24.0286V25.4498" stroke="white" stroke-width="3" stroke-linecap="round"/>
</svg>
