<svg width="150" height="150" viewBox="0 0 150 150" fill="none" xmlns="http://www.w3.org/2000/svg">
<rect width="150" height="150" rx="25" fill="#EFEFEF"/>
<path d="M31.1946 87V63.7273H36.1151V82.9432H46.0923V87H31.1946ZM69.831 75.3636C69.831 77.9015 69.3499 80.0606 68.3878 81.8409C67.4332 83.6212 66.1302 84.9811 64.4787 85.9205C62.8348 86.8523 60.9863 87.3182 58.9332 87.3182C56.8651 87.3182 55.009 86.8485 53.3651 85.9091C51.7211 84.9697 50.4219 83.6098 49.4673 81.8295C48.5128 80.0492 48.0355 77.8939 48.0355 75.3636C48.0355 72.8258 48.5128 70.6667 49.4673 68.8864C50.4219 67.1061 51.7211 65.75 53.3651 64.8182C55.009 63.8788 56.8651 63.4091 58.9332 63.4091C60.9863 63.4091 62.8348 63.8788 64.4787 64.8182C66.1302 65.75 67.4332 67.1061 68.3878 68.8864C69.3499 70.6667 69.831 72.8258 69.831 75.3636ZM64.8423 75.3636C64.8423 73.7197 64.5961 72.3333 64.1037 71.2045C63.6188 70.0758 62.9332 69.2197 62.0469 68.6364C61.1605 68.053 60.1226 67.7614 58.9332 67.7614C57.7438 67.7614 56.706 68.053 55.8196 68.6364C54.9332 69.2197 54.2438 70.0758 53.7514 71.2045C53.2666 72.3333 53.0241 73.7197 53.0241 75.3636C53.0241 77.0076 53.2666 78.3939 53.7514 79.5227C54.2438 80.6515 54.9332 81.5076 55.8196 82.0909C56.706 82.6742 57.7438 82.9659 58.9332 82.9659C60.1226 82.9659 61.1605 82.6742 62.0469 82.0909C62.9332 81.5076 63.6188 80.6515 64.1037 79.5227C64.5961 78.3939 64.8423 77.0076 64.8423 75.3636Z" fill="#FDA92D"/>
<path d="M88.9077 71.25C88.7486 70.697 88.5251 70.2083 88.2372 69.7841C87.9493 69.3523 87.5971 68.9886 87.1804 68.6932C86.7713 68.3902 86.3016 68.1591 85.7713 68C85.2486 67.8409 84.669 67.7614 84.0327 67.7614C82.8433 67.7614 81.7978 68.0568 80.8963 68.6477C80.0024 69.2386 79.3054 70.0985 78.8054 71.2273C78.3054 72.3485 78.0554 73.7197 78.0554 75.3409C78.0554 76.9621 78.3016 78.3409 78.794 79.4773C79.2865 80.6136 79.9834 81.4811 80.8849 82.0795C81.7865 82.6705 82.8509 82.9659 84.0781 82.9659C85.1918 82.9659 86.1425 82.7689 86.9304 82.375C87.7259 81.9735 88.3319 81.4091 88.7486 80.6818C89.1728 79.9545 89.3849 79.0947 89.3849 78.1023L90.3849 78.25H84.3849V74.5455H94.1236V77.4773C94.1236 79.5227 93.6918 81.2803 92.8281 82.75C91.9645 84.2121 90.7751 85.3409 89.2599 86.1364C87.7448 86.9242 86.0099 87.3182 84.0554 87.3182C81.8736 87.3182 79.9569 86.8371 78.3054 85.875C76.6539 84.9053 75.366 83.5303 74.4418 81.75C73.5251 79.9621 73.0668 77.8409 73.0668 75.3864C73.0668 73.5 73.3395 71.8182 73.8849 70.3409C74.438 68.8561 75.2107 67.5985 76.2031 66.5682C77.1955 65.5379 78.3509 64.7538 79.669 64.2159C80.9872 63.678 82.4152 63.4091 83.9531 63.4091C85.2713 63.4091 86.4986 63.6023 87.6349 63.9886C88.7713 64.3674 89.7789 64.9053 90.6577 65.6023C91.544 66.2992 92.2675 67.1288 92.8281 68.0909C93.3887 69.0455 93.7486 70.0985 93.9077 71.25H88.9077ZM119.206 75.3636C119.206 77.9015 118.725 80.0606 117.763 81.8409C116.808 83.6212 115.505 84.9811 113.854 85.9205C112.21 86.8523 110.361 87.3182 108.308 87.3182C106.24 87.3182 104.384 86.8485 102.74 85.9091C101.096 84.9697 99.7969 83.6098 98.8423 81.8295C97.8878 80.0492 97.4105 77.8939 97.4105 75.3636C97.4105 72.8258 97.8878 70.6667 98.8423 68.8864C99.7969 67.1061 101.096 65.75 102.74 64.8182C104.384 63.8788 106.24 63.4091 108.308 63.4091C110.361 63.4091 112.21 63.8788 113.854 64.8182C115.505 65.75 116.808 67.1061 117.763 68.8864C118.725 70.6667 119.206 72.8258 119.206 75.3636ZM114.217 75.3636C114.217 73.7197 113.971 72.3333 113.479 71.2045C112.994 70.0758 112.308 69.2197 111.422 68.6364C110.536 68.053 109.498 67.7614 108.308 67.7614C107.119 67.7614 106.081 68.053 105.195 68.6364C104.308 69.2197 103.619 70.0758 103.126 71.2045C102.642 72.3333 102.399 73.7197 102.399 75.3636C102.399 77.0076 102.642 78.3939 103.126 79.5227C103.619 80.6515 104.308 81.5076 105.195 82.0909C106.081 82.6742 107.119 82.9659 108.308 82.9659C109.498 82.9659 110.536 82.6742 111.422 82.0909C112.308 81.5076 112.994 80.6515 113.479 79.5227C113.971 78.3939 114.217 77.0076 114.217 75.3636Z" fill="#121212"/>
</svg>
